<svg aria-hidden="true" style="position: absolute; width: 0; height: 0; overflow: hidden;" version="1.1" xmlns="http://www.w3.org/2000/svg" xmlns:xlink="http://www.w3.org/1999/xlink">
<defs>
<symbol id="icon-flower-1" viewBox="0 0 33 32">
<path d="M24.021 10.001v-5c0-0.552-0.448-1-1-1h-1v-3c0-0.552-0.448-1-1-1-1.416 0-3.585-0.108-6.132 1.416-1.583-0.471-2.702-0.416-3.873-0.416-0.553 0-1.001 0.448-1.001 1v2h-1c-0.553 0-1.001 0.448-1.001 1v5c0 4.072 3.061 7.444 7.003 7.937v13.062c0 0.552 0.448 1 1.001 1s1-0.448 1-1v-3.5h1.501c3.034 0 5.503-2.467 5.503-5.5v-1.5c0-0.552-0.448-1-1-1h-2.501c-1.329 0-2.55 0.473-3.502 1.26v-2.823c3.937-0.487 7.003-3.842 7.003-7.937zM22.021 10.001c0 1.78-0.787 3.387-2.032 4.489 0.020-0.16 0.031-0.323 0.031-0.489 0-2.532-0.947-4.847-2.505-6.611 1.321-0.901 2.887-1.389 4.506-1.389v4zM20.020 2.002v2.202c-0.185 0.038-0.369 0.081-0.551 0.128-0.649-0.726-1.389-1.345-2.197-1.845 0.874-0.319 1.801-0.485 2.748-0.485zM12.016 3.002c1.988 0 3.918 0.725 5.419 2.111-0.495 0.256-0.971 0.553-1.42 0.891-1.163-0.874-2.522-1.501-3.999-1.802v-1.201zM10.015 10.001v-4c4.413 0 8.004 3.589 8.004 8 0 1.117-0.923 2.028-2.053 1.999-3.515-0.087-5.95-2.878-5.95-5.999zM20.52 21.501h1.501v0.5c0 1.93-1.571 3.5-3.502 3.5h-1.501v-0.5c0-1.93 1.571-3.5 3.502-3.5z"></path>
</symbol>
<symbol id="icon-upload" viewBox="0 0 32 32">
<path d="M14 18h4v-8h6l-8-8-8 8h6zM20 13.5v3.085l9.158 3.415-13.158 4.907-13.158-4.907 9.158-3.415v-3.085l-12 4.5v8l16 6 16-6v-8z"></path>
</symbol>
</defs>
</svg>
